<svg id="Layer_1" data-name="Layer 1" xmlns="http://www.w3.org/2000/svg" viewBox="0 0 867.56 291.56"><defs><style>.cls-1{fill:#231f20;}</style></defs><title>LOGO 1</title><path d="M29,216.15c-1.63-10.93-3-23.74,3.49-31.16,9.33-10.67,24-18.06,36.37-19.31,14.74-1.5,29.32.49,44,2.49,15.25,2.09,30.58,3.33,45.91,4.38,3.71.25,16.69-.12,18.81-2.54s4.76-9.37,1.09-12.44c-4.74-4-19.37-4.39-22.32-4.59-11.57-.79-23.22-.3-34.82.23-19.37.9-38.76,2.94-58-1.59a50.05,50.05,0,0,1-14.67-6.15c-16.19-10-19.86-32.16-8.37-49.82C50.3,80.45,64,73.21,79.15,69.58c15.75-3.78,31.67-2.74,47.56-1.45,17.19,1.4,34.36,3.78,51.63,1.45C188.76,68.18,199,65.92,208,58.82c4.22,8,2.46,21.17-3.85,27.91-7.5,8-16.76,11.09-26.28,13.25-15.46,3.51-30.9,1.67-46.32-.48-14.06-2-28.11-4.09-42.18-5.87a30.64,30.64,0,0,0-20.67,4.26c-5.94,3.7-6.46,10.69-1,15.41a27.12,27.12,0,0,0,18.5,6.9c15.9-.21,31.8-.64,47.69-1.42,14.07-.69,28.12-.88,41.84,3.42,18.72,5.87,26.68,21.19,23.71,44.54-2,16.11-10.65,25.3-22.35,31a71.13,71.13,0,0,1-31.66,7.6c-15.5-.08-31-.9-46.49-1.59-18.74-.82-37.44-1.19-55.62,5.65C38.47,211.21,33.88,213.8,29,216.15Z"/><path d="M474.68,148.51c-12.23-2.56-20.72-1.46-41.33,5.21-1.84-8,3.24-15.94,12.48-19.61,11.34-4.5,23-3.35,34.76-2,12.86,1.48,21.48,3.56,35.46-2.51-4.2,4.48-18.94,34.41-15.16,51,1.76,7.71,7.28,16.37,15.31,20.5-6.73,1.3-14.2,1.24-21.06,1.33s-13.76-.15-20.61-.71a8.24,8.24,0,0,1-4.25-1.15c-1.39-1-1.86-2.75-2.24-4.35-1.39-5.76-.7-8.65-7.07-7-4.72,1.19-12.3,7.41-16.32,10.18a71.25,71.25,0,0,1-50.26,7.05c-26.2-5.8-41-25.05-38.57-50,3.24-32.8,20.3-58.58,49.33-77.45C428.67,63.59,455,58.1,483.45,62.82c5.07.84,10,2.83,14.75,4.81,11.82,4.94,17.15,16,13,26.3-4.22,10.48-17,16.21-29.5,13.1,1-2.92,2.33-5.79,2.92-8.78,2.87-14.4-6.8-24.2-22.69-23.13-14.72,1-26.49,7.44-36.18,17.26-19,19.28-28.71,42.06-28.71,68.11a40.49,40.49,0,0,0,2.79,14.15c5.07,13.24,17.13,19.63,31.72,15.8,22.28-5.87,37.11-19.25,43.24-40.18A6,6,0,0,0,474.68,148.51Z"/><path d="M573.87,93.43c20.22-23.34,45.75-31.77,75.74-30.52,9.1.37,17.88,2.66,25.07,7.9,13.92,10.14,13.49,29.55-.53,41.26a58.07,58.07,0,0,1-23.8,12c-1.32.33-2.58.83-5.11,1.65,5.42,1.38,9.69,2.18,13.72,3.53,30.61,10.28,29.21,38.75,14.45,54.18-11.32,11.84-26.27,17.75-42.77,20.89-30.44,5.79-60.79,5.64-91-1.46a47.59,47.59,0,0,1-8.25-2.67c-12.86-5.71-17.48-15-14.16-28.1,5.42-21.37,11.5-42.63,16.07-64.15,2.19-10.33,4.31-21.63,2-32.12C534,70,531,64.46,526,61.29a26.44,26.44,0,0,0,7.48.84,87,87,0,0,1,22.59,3.73c4.06,1.24,8.12,2.82,11.41,5.51C574.14,76.78,574.54,85.52,573.87,93.43Zm6.18,101.7c5.53-.51,11.45-.66,17.19-1.67,13.52-2.38,26.19-6.57,35.44-16.56,13.73-14.83,8.1-32.92-12.2-38.67a46.53,46.53,0,0,0-14.07-1.85c-7.28.26-14.5,1.71-21.78,2.2-2,.14-5.47-.85-6.08-2.15-1.94-4.17,3.17-9.92,8.14-10.76,10-1.69,20.24-3.17,30-6,10.71-3.06,20.61-7.9,27-17,6.14-8.65,2-19.3-8.94-21.74a35.65,35.65,0,0,0-13-.46c-20.2,3.23-34.26,14.36-44.34,30-8.57,13.24-12.8,27.91-15.46,42.91-2,11.3-3.31,22.7-4.91,34.05-.59,4.23,1.68,6.06,6.19,6.32C568.74,194.1,574.21,194.65,580.05,195.13Z"/><path d="M218.44,64.21c16.17-4.6,42.15.14,48.06,16.05,3.18,8.57,2.7,17.06.12,25.52-4.69,15.4-10.16,30.62-14.23,46.14a51.82,51.82,0,0,0-1,21.21c2.06,12.46,15.25,17.42,27.72,11.34,10.66-5.2,17.22-13.5,22.39-23,6.34-11.64,6.68-24.44,9.5-36.77,2.71-11.84,5.17-23.9,9.83-35.17,7.77-18.8,27.9-26.14,47.77-26.57a6.88,6.88,0,0,1,1.62.43c-2.66,7.15-5.5,14.16-7.88,21.28-10.87,18.08-21.1,47.88-21.93,86-.1,9.31,6,22.05,15.8,27.71-10.05,6.62-20.32,10.41-32.57,7.13-14-3.75-17.48-13.83-18.64-26.28-3.07,3.1-5.4,5.53-7.83,7.88-15.9,15.35-35,23.36-58.7,18.7-20.61-4.05-31.65-17-32.21-35.77-.45-15.11,5.22-29.11,9.6-43.37,3.45-11.21,6.93-22.44,9.54-33.82C227.69,82.8,226.77,72.9,218.44,64.21Z"/><path d="M840.79,77.6c-3.77-4.33-7.27-7-11.23-8.69h0S786.39,48.3,759.7,77.33c-9.86,10.45-26.67,43-12.51,79.68.3.78,1,1.67.81-.25-.83-9.69-2.2-40.77,11.41-61.06,8.46-12.61,18.37-15.73,25.94-15.82l-.07.13a15.08,15.08,0,0,1,2-.09c12.06-1,19.42,9.6,22.21,13.74,8.79,13,11.93,39.86,2.06,59.29-16.29,32-37,36.82-53.86,36.57-4.14-.06-24.2-4.51-34.5-24.6-7.84-15.29-5.4-39.82-3.43-46.8,5.46-19.29,13-30.62,22-35.17,6.26-3.16,8.39-2.79,11.44-2.63.19-1.18-2-2.52-5.94-3-3.59-.4-8.47,1-13.32,4.13-25.2,16.53-38.38,42.05-40,72-1,17.76,4.79,33.41,20.06,44.44,13.95,10.08,29.75,11.91,46.15,10.66,45.52-3.47,88.82-44.66,91.1-93.49C851.85,101.57,850.2,88.42,840.79,77.6Z"/><path class="cls-1" d="M65.4,265.86H60.94q-22.24,0-22.25-12.94v-.49H54q.39,5.15,9.12,5.15h.44a33.26,33.26,0,0,0,4.65-.27,7.84,7.84,0,0,0,2.75-.79,3.3,3.3,0,0,0,1.2-1.07,2.63,2.63,0,0,0,.31-1.3v-.05a2.48,2.48,0,0,0-.51-1.64,4.86,4.86,0,0,0-2.45-1.08,28.52,28.52,0,0,0-5.61-.56l-6.76-.2q-17.9-.5-17.89-11v-.44a10.41,10.41,0,0,1,.54-3.45,8.45,8.45,0,0,1,2-3,11.15,11.15,0,0,1,3.73-2.45,26.46,26.46,0,0,1,6-1.6,55.57,55.57,0,0,1,8.7-.61h4.36q22.14,0,22.14,11.52V240H71.57q-.43-3.87-8.82-3.87h-.49a26.36,26.36,0,0,0-5.29.41,4.74,4.74,0,0,0-2.3.93,2,2,0,0,0-.44,1.35v.05a1.9,1.9,0,0,0,.51,1.37,5.08,5.08,0,0,0,2.33,1,25.49,25.49,0,0,0,5.1.46l6.56.15q10.33.3,14.8,2.87A8.69,8.69,0,0,1,88,252.78v.68a12.94,12.94,0,0,1-.49,3.65,9.11,9.11,0,0,1-2,3.33,11.74,11.74,0,0,1-3.9,2.85,26.35,26.35,0,0,1-6.56,1.86A58.32,58.32,0,0,1,65.4,265.86Z"/><path class="cls-1" d="M115.62,228.72H156v8.92H129.34v4.55h26.07v8.87H129.34v5h27v9.11H115.62Z"/><path class="cls-1" d="M184.86,228.72h40.32v8.92h-26.6v4.55h26.06v8.87H198.58v5h27v9.11H184.86Z"/><path class="cls-1" d="M254.09,265.17V228.72H280a53.41,53.41,0,0,1,10.78,1,26.85,26.85,0,0,1,7.6,2.6,15.94,15.94,0,0,1,4.73,3.91,13.8,13.8,0,0,1,2.52,4.66,18.07,18.07,0,0,1,.68,5.1v1.47a19.89,19.89,0,0,1-.61,5,14,14,0,0,1-2.4,4.76,15.78,15.78,0,0,1-4.61,4.09,26,26,0,0,1-7.59,2.76A50.44,50.44,0,0,1,280,265.17ZM268,238.27v17.25h10.34q13.47,0,13.47-8.53v-.29q0-8.43-13.47-8.43Z"/><path class="cls-1" d="M401.59,265.17l-2.84-5.88H377.92l-2.79,5.88H361l18-36.45h18.72l19.06,36.45Zm-7.3-15-6.12-12.54-6,12.54Z"/><path class="cls-1" d="M456.81,252.68v12.49H442.9V228.72H476q15.33,0,15.34,9.36v.54a7.69,7.69,0,0,1-.74,3.38,6.8,6.8,0,0,1-1.94,2.45,12.54,12.54,0,0,1-2.35,1.47,12.89,12.89,0,0,1-2.32.83,10.18,10.18,0,0,1,5.48,3,8.15,8.15,0,0,1,2,5.66v5.39a9.12,9.12,0,0,0,.69,4.12v.24H478a2.91,2.91,0,0,1-.44-1.91V259a6.19,6.19,0,0,0-1.69-4.78q-1.69-1.54-5.71-1.54Zm0-15.09v6.27h16c2.8,0,4.21-1.05,4.21-3.14v-.05c0-2-1.41-3.08-4.21-3.08Z"/><path class="cls-1" d="M546.09,265.86h-1.91a44.75,44.75,0,0,1-11.25-1.27,23.7,23.7,0,0,1-7.52-3.17,15.86,15.86,0,0,1-4.36-4.48,15.29,15.29,0,0,1-2.16-4.8,21,21,0,0,1-.49-4.61v-1.42a21.73,21.73,0,0,1,.47-4.6,15.93,15.93,0,0,1,6.37-9.14,23.74,23.74,0,0,1,7.54-3.09,46.37,46.37,0,0,1,11.4-1.25h1.91a55,55,0,0,1,8.35.59,34.55,34.55,0,0,1,6.37,1.52,22,22,0,0,1,4.56,2.23,14.39,14.39,0,0,1,3.11,2.62,13,13,0,0,1,1.84,2.82,11.25,11.25,0,0,1,.93,2.67,13.06,13.06,0,0,1,.22,2.3v.64H557q-1.66-5.59-12-5.59-12.21,0-12.2,8.53V247a8.45,8.45,0,0,0,.56,3.08,9.32,9.32,0,0,0,1.86,2.89,8.86,8.86,0,0,0,3.82,2.26,19.47,19.47,0,0,0,6,.83,23,23,0,0,0,5.34-.56,13.81,13.81,0,0,0,3.48-1.25,6.77,6.77,0,0,0,2-1.72,6.31,6.31,0,0,0,.93-1.47c.1-.29.19-.62.29-1h14.41v.79a12.76,12.76,0,0,1-.49,3.4,12.26,12.26,0,0,1-2.16,3.92,15.79,15.79,0,0,1-4.29,3.82,24.74,24.74,0,0,1-7.39,2.77A48.54,48.54,0,0,1,546.09,265.86Z"/><path class="cls-1" d="M599.3,265.17V228.72h13.91V241.6H636V228.72h13.86v36.45H636V251.31H613.21v13.86Z"/><path class="cls-1" d="M692.93,228.72v36.45H679.07V228.72Z"/><path class="cls-1" d="M756,265.17H737.57l-18.42-36.45h15.77l12.25,25.43,11.52-25.43h14.45Z"/><path class="cls-1" d="M799.36,228.72h40.32v8.92h-26.6v4.55h26.06v8.87H813.08v5h27v9.11H799.36Z"/><path d="M754.92,47.49c-6.1,9-1.95,16.79.76,20.37A26,26,0,0,1,766.44,44s-8.57,13.26-7.29,25.35c25.41-10,26.5-47.27,26.5-47.27S763.29,35.12,754.92,47.49Z"/></svg>